<svg width="56" height="56" viewBox="0 0 56 56" fill="none" xmlns="http://www.w3.org/2000/svg">
<rect width="56" height="56" rx="5" fill="#D0DFEA"/>
<path d="M30.2433 43.0152C29.9425 43.4404 29.5022 43.7492 29 43.8879L26.5027 44.57C26.3067 44.6255 26.1044 44.6541 25.9003 44.6541C25.4402 44.6541 24.9953 44.5136 24.6203 44.2496C24.0698 43.8665 23.7243 43.2623 23.6697 42.6079L23.4504 40.0292C23.3985 39.5002 23.5408 38.9703 23.8416 38.5442L23.9338 38.4117H15.0258C14.307 38.4117 13.7243 37.8192 13.7243 37.1022C13.7243 36.3826 14.307 35.79 15.0258 35.79H25.8081L28.2177 32.3484H15.0258C14.307 32.3484 13.7243 31.7558 13.7243 31.0371C13.7243 30.3183 14.307 29.7257 15.0258 29.7257L30.0732 29.6873L35.7159 21.5965V15.6056C35.7159 14.621 34.9542 13.8262 33.9723 13.8262H29.6525V17.2445C29.6525 18.8584 28.3332 20.1348 26.722 20.1348H18.0342C16.4194 20.1348 15.1457 18.8575 15.1457 17.2445V13.8262H10.7794C9.79574 13.8262 9 14.6219 9 15.6056V46.1758C9 47.1604 9.79663 47.9991 10.7794 47.9991H33.9705C34.9551 47.9991 35.715 47.1595 35.715 46.1758V35.2449L30.2433 43.0152ZM15.0258 23.6606H29.7268C30.4438 23.6606 31.0274 24.2522 31.0274 24.971C31.0274 25.6898 30.4438 26.2823 29.7268 26.2823H15.0258C14.307 26.2823 13.7243 25.6898 13.7243 24.971C13.7243 24.2522 14.307 23.6606 15.0258 23.6606Z" fill="#003764"/>
<path d="M18.0584 18.4153H26.7381C27.3951 18.4153 27.9295 17.8818 27.9295 17.2231V12.2311C27.9295 11.5723 27.3951 11.0388 26.7381 11.0388H25.4304C25.4214 9.36054 24.0573 8 22.3754 8C20.6926 8 19.3303 9.35965 19.3204 11.0388H18.0584C17.3996 11.0388 16.867 11.5723 16.867 12.2311V17.2222C16.867 17.881 17.3996 18.4153 18.0584 18.4153ZM22.3763 9.69262C23.1237 9.69262 23.7297 10.2941 23.7377 11.0397H21.0122C21.0211 10.2941 21.628 9.69262 22.3763 9.69262Z" fill="#003764"/>
<path d="M46.696 16.0362C46.6557 15.8142 46.5295 15.6199 46.3451 15.491L44.1719 13.9765C44.0251 13.8736 43.8559 13.8244 43.6894 13.8244C43.4244 13.8244 43.1604 13.9497 42.9984 14.1851L27.6036 36.2608L31.1599 38.7411L46.5564 16.6663C46.6835 16.4828 46.7345 16.2563 46.696 16.0362Z" fill="#003764"/>
<path d="M25.1788 39.8654L25.4017 42.4576C25.4125 42.6071 25.4921 42.7404 25.613 42.8264C25.6989 42.8854 25.8 42.9194 25.9003 42.9194C25.9441 42.9194 25.9889 42.9132 26.0319 42.9007L28.5426 42.2132C28.6563 42.1819 28.7547 42.1121 28.8228 42.0163L29.7653 40.6647L26.2064 38.1835L25.2639 39.5351C25.1976 39.6309 25.1663 39.7481 25.1788 39.8654Z" fill="#003764"/>
</svg>
