<svg width="56" height="56" viewBox="0 0 56 56" fill="none" xmlns="http://www.w3.org/2000/svg">
<rect width="56" height="56" rx="5" fill="#D0DFEA"/>
<path d="M8.54525 29.186C10.9115 31.2156 13.5934 33.5161 18.781 33.5161C23.9687 33.516 26.6507 31.2156 29.017 29.186C31.2549 27.2666 33.1875 25.6089 37.2186 25.6089C41.2498 25.6089 43.1824 27.2666 45.4202 29.186C46.0753 29.7478 47.0617 29.6723 47.6235 29.0173C48.1853 28.3622 48.1098 27.3758 47.4547 26.814C45.0884 24.7844 42.4063 22.4839 37.2186 22.4839C32.0309 22.4839 29.3488 24.7843 26.9825 26.814C24.7447 28.7334 22.812 30.3911 18.781 30.3911C14.7499 30.3911 12.8175 28.7335 10.5799 26.814C9.92486 26.2522 8.93845 26.3276 8.37658 26.9827C7.8147 27.6377 7.89025 28.6242 8.54525 29.186Z" fill="#003764"/>
<path d="M8.54525 20.6396C10.9114 22.6693 13.5933 24.9698 18.781 24.9698C23.9687 24.9698 26.6507 22.6693 29.017 20.6396C31.2549 18.7202 33.1874 17.0625 37.2186 17.0625C41.2496 17.0625 43.1823 18.7202 45.4202 20.6396C46.0753 21.2016 47.0616 21.1259 47.6234 20.4708C48.1852 19.8158 48.1095 18.8292 47.4545 18.2675C45.0882 16.2378 42.4062 13.9375 37.2186 13.9375C32.0309 13.9375 29.3488 16.238 26.9825 18.2677C24.7447 20.187 22.812 21.8448 18.781 21.8448C14.75 21.8448 12.8175 20.1871 10.5799 18.2677C9.92486 17.7058 8.93838 17.7813 8.37658 18.4363C7.8147 19.0913 7.89025 20.0778 8.54525 20.6396Z" fill="#003764"/>
<path d="M47.4547 35.3603C45.0884 33.3307 42.4063 31.0301 37.2186 31.0301C32.0309 31.0301 29.3488 33.3306 26.9825 35.3603C24.7447 37.2797 22.812 38.9374 18.7809 38.9374C14.7502 38.9374 12.8176 37.2797 10.5799 35.3604L10.5798 35.3603C9.92476 34.7986 8.93844 34.8741 8.37656 35.529C7.81476 36.184 7.89031 37.1705 8.54531 37.7323C10.9116 39.762 13.5935 42.0624 18.7809 42.0624C23.9687 42.0624 26.6507 39.7619 29.017 37.7322C31.2548 35.8129 33.1875 34.1551 37.2186 34.1551C41.2498 34.1551 43.1824 35.8129 45.4202 37.7322C46.0752 38.294 47.0616 38.2186 47.6234 37.5636C48.1852 36.9085 48.1098 35.9221 47.4547 35.3603Z" fill="#003764"/>
</svg>
