<svg width="56" height="56" viewBox="0 0 56 56" fill="none" xmlns="http://www.w3.org/2000/svg">
<rect width="56" height="56" rx="5" fill="#D0DFEA"/>
<path d="M18.4288 47.7474L31.232 34.8859C31.7571 34.3607 31.382 33.4647 30.6402 33.4647H29.6191C28.9231 33.4647 28.5313 32.6603 28.9648 32.1143L35.7539 23.5539C36.1874 23.0079 35.7998 22.2035 35.0996 22.2035H31.6863C30.9986 22.2035 30.6069 21.42 31.0195 20.8699L39.6924 9.33367C40.105 8.78353 39.7133 8 39.0256 8H25.3096C24.9929 8 24.7011 8.17921 24.5636 8.46262L17.8578 22.0285C17.5827 22.5828 17.987 23.233 18.6038 23.233H21.6962C22.3131 23.233 22.7173 23.8832 22.4423 24.4375L17.8578 33.7148C17.5827 34.2691 17.987 34.9193 18.6038 34.9193H21.517C22.1338 34.9193 22.5339 35.5611 22.2672 36.1153L17.0909 46.7972C16.6783 47.6432 17.7661 48.4143 18.4288 47.7474Z" fill="#003764"/>
</svg>
