<svg width="56" height="56" viewBox="0 0 56 56" fill="none" xmlns="http://www.w3.org/2000/svg">
<rect width="56" height="56" rx="5" fill="#D0DFEA"/>
<path d="M17.375 23.8594V23.8594C15.7077 23.8594 14.366 22.4243 14.8572 20.831C16.5881 15.2166 21.8251 11.125 28 11.125C33.7292 11.125 38.9134 14.7336 40.9004 20.1046C41.1998 20.9139 42.0985 21.3273 42.908 21.028C43.7173 20.7285 44.1307 19.8298 43.8313 19.0204C42.6471 15.8191 40.5433 13.0798 37.7474 11.0984C34.8873 9.07141 31.5166 8 28 8C23.4926 8 19.2548 9.75531 16.0676 12.9426C13.6013 15.4089 11.9932 18.5042 11.3918 21.8668C11.081 23.6046 10.0508 25.163 9.06377 26.6266C8.39238 27.6222 8 28.8207 8 30.1094V35.4219C8 38.8681 10.8038 41.6719 14.25 41.6719H17.375C18.238 41.6719 18.9375 40.9723 18.9375 40.1094V25.4219C18.9375 24.5589 18.238 23.8594 17.375 23.8594ZM15.8125 36.9844C15.8125 37.8473 15.1129 38.5469 14.25 38.5469V38.5469C12.5269 38.5469 11.125 37.145 11.125 35.4219V30.1094C11.125 28.3863 12.5269 26.9844 14.25 26.9844V26.9844C15.1129 26.9844 15.8125 27.6839 15.8125 28.5469V36.9844Z" fill="#003764"/>
<path d="M41.75 23.8594H38.625C37.762 23.8594 37.0625 24.5589 37.0625 25.4219V41.75C37.0625 42.6116 36.3616 43.3125 35.5 43.3125H30.7446C30.7389 43.3125 30.7344 43.3171 30.7344 43.3227V43.3227C30.7344 43.3332 30.7203 43.3368 30.7151 43.3277C30.1769 42.3854 29.1628 41.75 28 41.75C26.2741 41.75 24.875 43.1491 24.875 44.875C24.875 46.6009 26.2741 48 28 48C29.1628 48 30.1769 47.3646 30.7151 46.4223C30.7203 46.4132 30.7344 46.4168 30.7344 46.4273V46.4273C30.7344 46.4329 30.7389 46.4375 30.7446 46.4375H35.5C38.0847 46.4375 40.1875 44.3347 40.1875 41.75V41.75C40.1875 41.7069 40.2225 41.6719 40.2656 41.6719H41.75C45.1962 41.6719 48 38.8681 48 35.4219V30.1094C48 26.6631 45.1962 23.8594 41.75 23.8594ZM44.875 35.4219C44.875 37.145 43.4731 38.5469 41.75 38.5469V38.5469C40.8871 38.5469 40.1875 37.8473 40.1875 36.9844V28.5469C40.1875 27.6839 40.8871 26.9844 41.75 26.9844V26.9844C43.4731 26.9844 44.875 28.3863 44.875 30.1094V35.4219Z" fill="#003764"/>
</svg>
